ply
format ascii 1.0
comment triangle + per-vertex normals, texcoords, RGBA + two camera elements
element vertex 3
property float x
property float y
property float z
property float nx
property float ny
property float nz
property float u
property float v
property uchar red
property uchar green
property uchar blue
property uchar alpha
element face 1
property list uchar int vertex_indices
element camera 2
comment Camera convention here: position + orientation as quaternion + intrinsics (fx,fy,cx,cy)
property float px
property float py
property float pz
property float qx
property float qy
property float qz
property float qw
property float fx
property float fy
property float cx
property float cy
end_header
0 0 0   0 0 1   0.0 0.0   255 0 0   255
1 0 0   0 0 1   1.0 0.0   0 255 0   255
0 1 0   0 0 1   0.0 1.0   0 0 255   255
3 0 1 2
0 0 2   0 0 0 1   800 800 320 240
2 0 2   0 0 0 1   800 800 320 240
